<svg xmlns="http://www.w3.org/2000/svg" xmlns:xlink="http://www.w3.org/1999/xlink" width="20.845" height="24.29" viewBox="0 0 20.845 24.29">
  <defs>
    <clipPath id="clip-path">
      <rect id="Rectangle_369" data-name="Rectangle 369" width="20.845" height="24.29" fill="none"/>
    </clipPath>
  </defs>
  <g id="Group_734" data-name="Group 734" clip-path="url(#clip-path)">
    <path id="Path_29" data-name="Path 29" d="M6.947,0H13.9V1.737H6.947ZM9.553,14.678h1.737V8.02H9.553Zm.869,9.612a10,10,0,0,1-4.039-.825A10.568,10.568,0,0,1,.825,17.906a10.293,10.293,0,0,1,0-8.077A10.568,10.568,0,0,1,6.384,4.27a10.015,10.015,0,0,1,4.039-.825A10.138,10.138,0,0,1,14.07,4.1a10.028,10.028,0,0,1,3.04,1.81l1.477-1.477L19.8,5.646,18.327,7.122a10.71,10.71,0,0,1,1.78,2.809,9.581,9.581,0,0,1,.738,3.937,10.008,10.008,0,0,1-.825,4.039,10.575,10.575,0,0,1-5.559,5.559,10.007,10.007,0,0,1-4.038.825m0-1.737a8.375,8.375,0,0,0,6.151-2.533,8.377,8.377,0,0,0,2.534-6.152,8.377,8.377,0,0,0-2.534-6.152,8.374,8.374,0,0,0-6.151-2.533A8.374,8.374,0,0,0,4.271,7.715a8.374,8.374,0,0,0-2.534,6.152,8.374,8.374,0,0,0,2.534,6.152,8.375,8.375,0,0,0,6.152,2.533" transform="translate(0 0)" fill="#4d4e4e"/>
  </g>
</svg>
