<svg xmlns="http://www.w3.org/2000/svg" xmlns:xlink="http://www.w3.org/1999/xlink" width="21.427" height="21.427" viewBox="0 0 21.427 21.427">
  <defs>
    <clipPath id="clip-path">
      <rect id="Rectangle_368" data-name="Rectangle 368" width="21.427" height="21.427" fill="none"/>
    </clipPath>
  </defs>
  <g id="Group_731" data-name="Group 731" clip-path="url(#clip-path)">
    <path id="Path_28" data-name="Path 28" d="M5.36,17.559a1.426,1.426,0,0,0,1.054-.435,1.445,1.445,0,0,0,.431-1.057,1.426,1.426,0,0,0-.435-1.053,1.444,1.444,0,0,0-1.056-.431,1.426,1.426,0,0,0-1.054.435,1.444,1.444,0,0,0-.431,1.056A1.423,1.423,0,0,0,4.3,17.127a1.443,1.443,0,0,0,1.056.432m0-10.714A1.426,1.426,0,0,0,6.413,6.41a1.444,1.444,0,0,0,.431-1.056A1.426,1.426,0,0,0,6.409,4.3,1.444,1.444,0,0,0,5.353,3.87,1.426,1.426,0,0,0,4.3,4.3,1.444,1.444,0,0,0,3.869,5.36,1.426,1.426,0,0,0,4.3,6.414a1.445,1.445,0,0,0,1.056.431M10.717,12.2a1.427,1.427,0,0,0,1.053-.435,1.445,1.445,0,0,0,.432-1.057,1.427,1.427,0,0,0-.435-1.053,1.443,1.443,0,0,0-1.057-.432,1.427,1.427,0,0,0-1.053.435,1.488,1.488,0,0,0,1.06,2.541m5.356,5.356a1.423,1.423,0,0,0,1.053-.435,1.442,1.442,0,0,0,.432-1.057,1.423,1.423,0,0,0-.435-1.053,1.444,1.444,0,0,0-1.056-.431,1.423,1.423,0,0,0-1.053.435,1.442,1.442,0,0,0-.432,1.056,1.426,1.426,0,0,0,.435,1.053,1.442,1.442,0,0,0,1.056.432m0-10.714a1.423,1.423,0,0,0,1.053-.435,1.442,1.442,0,0,0,.432-1.056A1.423,1.423,0,0,0,17.123,4.3a1.444,1.444,0,0,0-1.056-.431,1.423,1.423,0,0,0-1.053.435,1.442,1.442,0,0,0-.432,1.056,1.429,1.429,0,0,0,.435,1.054,1.444,1.444,0,0,0,1.056.431M1.785,21.427a1.713,1.713,0,0,1-1.25-.536A1.713,1.713,0,0,1,0,19.642V1.786A1.713,1.713,0,0,1,.536.536,1.714,1.714,0,0,1,1.785,0H19.641a1.714,1.714,0,0,1,1.25.536,1.71,1.71,0,0,1,.536,1.25V19.642a1.83,1.83,0,0,1-1.785,1.785Zm0-1.785H19.641V1.786H1.785Zm0-17.856v0Z" transform="translate(0 0)" fill="#4d4e4e"/>
  </g>
</svg>
