<svg xmlns="http://www.w3.org/2000/svg" width="78" height="69.225" viewBox="0 0 78 69.225">
  <path id="mark_email_unread_FILL0_wght400_GRAD0_opsz48" d="M85.85-800.775a5.612,5.612,0,0,1-4.1-1.755,5.613,5.613,0,0,1-1.755-4.1v-50.7a5.612,5.612,0,0,1,1.755-4.1,5.612,5.612,0,0,1,4.1-1.755h42.315a22.551,22.551,0,0,0-.39,2.925,14.686,14.686,0,0,0,.1,2.925H86.337L119-836.07l14.723-9.555A21.113,21.113,0,0,0,135.77-844a15.344,15.344,0,0,0,2.243,1.3L119-830.22,85.85-851.962v45.337h66.3v-35.1a13.025,13.025,0,0,0,3.061-1.306A25.365,25.365,0,0,0,158-844.943v38.318a5.613,5.613,0,0,1-1.755,4.1,5.612,5.612,0,0,1-4.1,1.755Zm0-56.55v0Zm60.438,8.775a10.316,10.316,0,0,1-7.593-3.132,10.373,10.373,0,0,1-3.12-7.6,10.316,10.316,0,0,1,3.132-7.594,10.373,10.373,0,0,1,7.6-3.12,10.316,10.316,0,0,1,7.594,3.132,10.373,10.373,0,0,1,3.12,7.6,10.316,10.316,0,0,1-3.132,7.594A10.373,10.373,0,0,1,146.288-848.55Z" transform="translate(-80 870)" fill="#ab0a1a"/>
</svg>
