<svg xmlns="http://www.w3.org/2000/svg" width="51.527" height="80.971" viewBox="0 0 51.527 80.971">
  <path id="phone_iphone_FILL0_wght400_GRAD0_opsz48" d="M205.521-839.029a5.3,5.3,0,0,1-3.865-1.656A5.3,5.3,0,0,1,200-844.55v-69.93a5.3,5.3,0,0,1,1.656-3.865A5.3,5.3,0,0,1,205.521-920h40.486a5.3,5.3,0,0,1,3.865,1.656,5.3,5.3,0,0,1,1.656,3.865v69.93a5.3,5.3,0,0,1-1.656,3.865,5.3,5.3,0,0,1-3.865,1.656Zm0-13.8v8.281h40.486v-8.281Zm20.259,6.9a2.634,2.634,0,0,0,1.962-.8,2.716,2.716,0,0,0,.782-1.978,2.633,2.633,0,0,0-.8-1.962,2.716,2.716,0,0,0-1.978-.782,2.634,2.634,0,0,0-1.962.8,2.716,2.716,0,0,0-.782,1.978,2.633,2.633,0,0,0,.8,1.962A2.716,2.716,0,0,0,225.78-845.93Zm-20.259-12.422h40.486V-906.2H205.521Zm0-53.367h40.486v-2.76H205.521Zm0,58.888v0Zm0-58.888v0Z" transform="translate(-200 920)" fill="#ab0a1a"/>
</svg>
