<svg xmlns="http://www.w3.org/2000/svg" xmlns:xlink="http://www.w3.org/1999/xlink" width="22.058" height="20.558" viewBox="0 0 22.058 20.558">
  <defs>
    <clipPath id="clip-path">
      <rect id="Rectangle_370" data-name="Rectangle 370" width="22.058" height="20.558" fill="none"/>
    </clipPath>
  </defs>
  <g id="Group_738" data-name="Group 738" clip-path="url(#clip-path)">
    <path id="Path_30" data-name="Path 30" d="M19.17,5.416l1.577,0a.744.744,0,0,0,.836-.838c0-.946,0-2.693,0-2.693a.78.78,0,0,0-.883-.864l-7.358,0a.737.737,0,0,0-.742.992,1.334,1.334,0,0,0,.125.3l.137.244s2.758,4.686,2.93,6.379a11.359,11.359,0,0,1,.316,2.9,3.78,3.78,0,0,1-1.471,2.752,5.476,5.476,0,0,1-6.015.49,3.8,3.8,0,0,1-2.171-3.464,1.665,1.665,0,0,0-.008-.235C6.4,10.958,6.346,9.356,7.7,6.4c.014-.031.029-.063.046-.093L9.851,2.419a1.343,1.343,0,0,0,.157-.475.773.773,0,0,0-.645-.9A1.266,1.266,0,0,0,9.031,1H5.354l-3.467.018a.776.776,0,0,0-.881.9V4.571a.739.739,0,0,0,.831.841c.948.005,1.647,0,1.647,0s.341-.054.206.3c0,0-1.163,3.659-1.276,4.521a8.012,8.012,0,0,0,1.994,6.938c2.668,2.866,7.03,2.907,7.03,2.907A8.891,8.891,0,0,0,16.751,18.4a7.826,7.826,0,0,0,3.517-7.445c0-.043-.007-.086-.013-.129a25.479,25.479,0,0,0-1.3-4.964c-.019-.048-.041-.094-.065-.141C18.838,5.614,18.758,5.368,19.17,5.416Z" transform="translate(-0.264 -0.264)" fill="none" stroke="#3f3f3f" stroke-miterlimit="10" stroke-width="2"/>
  </g>
</svg>
