<svg xmlns="http://www.w3.org/2000/svg" xmlns:xlink="http://www.w3.org/1999/xlink" width="23.533" height="15.224" viewBox="0 0 23.533 15.224">
  <defs>
    <clipPath id="clip-path">
      <rect id="Rectangle_371" data-name="Rectangle 371" width="23.533" height="15.224" fill="none"/>
    </clipPath>
  </defs>
  <g id="Group_741" data-name="Group 741" clip-path="url(#clip-path)">
    <path id="Path_31" data-name="Path 31" d="M11.619,7.233a5.681,5.681,0,0,0,.944-1.618,5.609,5.609,0,0,0,.306-1.936,5.613,5.613,0,0,0-.306-1.937A5.687,5.687,0,0,0,11.619.124a3.97,3.97,0,0,1,3.272.564A3.4,3.4,0,0,1,16.3,3.679a3.4,3.4,0,0,1-1.409,2.99,3.97,3.97,0,0,1-3.272.564m5.295,7.991v-2.3a4.5,4.5,0,0,0-.637-2.329A4.835,4.835,0,0,0,14.07,8.777q4.241.539,5.8,1.569a3.022,3.022,0,0,1,1.556,2.574v2.3Zm2.7-7.084V5.689H17.159V4.218H19.61V1.767h1.471V4.218h2.451V5.689H21.081V8.14ZM7.721,7.355A3.526,3.526,0,0,1,4.045,3.679,3.526,3.526,0,0,1,7.721,0a3.585,3.585,0,0,1,2.648,1.029A3.585,3.585,0,0,1,11.4,3.679,3.526,3.526,0,0,1,7.721,7.355M0,15.224v-2.3a2.827,2.827,0,0,1,1.667-2.6,19.382,19.382,0,0,1,3.15-1.127,12,12,0,0,1,2.9-.343,11.853,11.853,0,0,1,2.893.343,19.56,19.56,0,0,1,3.138,1.127,2.86,2.86,0,0,1,1.225,1.042,2.743,2.743,0,0,1,.466,1.556v2.3Zm7.721-9.34A2.138,2.138,0,0,0,9.928,3.679,2.139,2.139,0,0,0,7.721,1.472,2.138,2.138,0,0,0,5.515,3.679,2.137,2.137,0,0,0,7.721,5.884M1.471,13.753h12.5V12.92a1.456,1.456,0,0,0-.2-.735,1.331,1.331,0,0,0-.612-.539A15.132,15.132,0,0,0,10.3,10.591a11.522,11.522,0,0,0-2.574-.27,11.362,11.362,0,0,0-2.562.27,16.417,16.417,0,0,0-2.9,1.054,1.281,1.281,0,0,0-.576.527,1.455,1.455,0,0,0-.208.747Z" transform="translate(0 0)" fill="#4d4e4e"/>
  </g>
</svg>
