<svg xmlns="http://www.w3.org/2000/svg" xmlns:xlink="http://www.w3.org/1999/xlink" width="21.427" height="21.427" viewBox="0 0 21.427 21.427">
  <defs>
    <clipPath id="clip-path">
      <rect id="Rectangle_367" data-name="Rectangle 367" width="21.427" height="21.427" fill="none"/>
    </clipPath>
  </defs>
  <g id="Group_729" data-name="Group 729" clip-path="url(#clip-path)">
    <path id="Path_27" data-name="Path 27" d="M7.47,19.493,1.9,13.928A12.921,12.921,0,0,0,1.726,16.8a11.5,11.5,0,0,0,.3,2.485,13.251,13.251,0,0,0,2.529.342,11.812,11.812,0,0,0,2.917-.134m2.2-.327a12.912,12.912,0,0,0,3.467-1.191,11.14,11.14,0,0,0,2.815-2.026,11.089,11.089,0,0,0,1.977-2.721,13.651,13.651,0,0,0,1.235-3.556l-7.41-7.41A14.91,14.91,0,0,0,8.258,3.5,10.745,10.745,0,0,0,5.476,5.476,10.221,10.221,0,0,0,3.526,8.258a18.278,18.278,0,0,0-1.265,3.5ZM7.38,15.3l-1.25-1.25,7.916-7.916L15.3,7.38ZM19.523,7.5A12.921,12.921,0,0,0,19.7,4.628a11.493,11.493,0,0,0-.3-2.485A13.251,13.251,0,0,0,16.874,1.8a11.788,11.788,0,0,0-2.917.134ZM5.238,21.427A16.622,16.622,0,0,1,2.366,21.2a3.481,3.481,0,0,1-1.593-.536,3.459,3.459,0,0,1-.55-1.607A16.622,16.622,0,0,1,0,16.19,21.665,21.665,0,0,1,1.071,9.27,12.989,12.989,0,0,1,4.107,4.107,12.989,12.989,0,0,1,9.268,1.071,21.663,21.663,0,0,1,16.19,0a16.622,16.622,0,0,1,2.872.223A3.481,3.481,0,0,1,20.654.76a3.459,3.459,0,0,1,.55,1.607,16.622,16.622,0,0,1,.223,2.872,21.665,21.665,0,0,1-1.071,6.919A12.989,12.989,0,0,1,17.32,17.32a12.989,12.989,0,0,1-5.163,3.036,21.665,21.665,0,0,1-6.919,1.071" transform="translate(0 0)" fill="#4d4e4e"/>
  </g>
</svg>
