<svg xmlns="http://www.w3.org/2000/svg" width="91.453" height="83.036" viewBox="0 0 91.453 83.036">
  <path id="handshake_FILL0_wght400_GRAD0_opsz48" d="M85.207-802.2a3.391,3.391,0,0,0,1.2-.26,3.084,3.084,0,0,0,1.091-.676l35.023-35.126a8.894,8.894,0,0,0,2.027-3.083,9.474,9.474,0,0,0,.675-3.464,9.833,9.833,0,0,0-.675-3.533,8.819,8.819,0,0,0-2.027-3.118L103.81-870.167a8.818,8.818,0,0,0-3.118-2.026,9.833,9.833,0,0,0-3.533-.676,9.474,9.474,0,0,0-3.464.676,8.892,8.892,0,0,0-3.083,2.026L88.741-868.3l8.418,8.522a16.369,16.369,0,0,1,2.39,3.377,8.709,8.709,0,0,1,1.039,4.209,9.485,9.485,0,0,1-3.066,6.963,9.733,9.733,0,0,1-7.015,3.014,10.437,10.437,0,0,1-4.313-.779,10.523,10.523,0,0,1-3.137-2.218l-7.619-7.6L56.628-834a3.007,3.007,0,0,0-.727,1.094,3.59,3.59,0,0,0-.208,1.231,2.982,2.982,0,0,0,.883,2.2,2.986,2.986,0,0,0,2.2.883,2.528,2.528,0,0,0,1.23-.312,4.287,4.287,0,0,0,.987-.727l14.342-14.342,4.365,4.365L65.462-825.375a2.917,2.917,0,0,0-.727,1.143,3.923,3.923,0,0,0-.208,1.247,2.991,2.991,0,0,0,.935,2.182,2.991,2.991,0,0,0,2.182.935,2.856,2.856,0,0,0,1.2-.26,3.327,3.327,0,0,0,.987-.676l14.342-14.342,4.365,4.365L74.3-816.541a3.107,3.107,0,0,0-.676,1.074,3.562,3.562,0,0,0-.26,1.316,2.991,2.991,0,0,0,.935,2.182,2.991,2.991,0,0,0,2.182.935,3.052,3.052,0,0,0,1.143-.208,3.169,3.169,0,0,0,1.039-.728L93-826.31l4.365,4.365L83.025-807.6a2.917,2.917,0,0,0-.727,1.143,3.641,3.641,0,0,0-.208,1.143,3.09,3.09,0,0,0,.831,2.286A3.089,3.089,0,0,0,85.207-802.2Zm.007,6.235a8.711,8.711,0,0,1-6.138-2.546,10.353,10.353,0,0,1-3.222-6.3,10.183,10.183,0,0,1-5.924-2.9,10.247,10.247,0,0,1-2.91-5.924,9.869,9.869,0,0,1-5.872-2.962,10.572,10.572,0,0,1-2.858-5.872,10.442,10.442,0,0,1-6.339-3.118,8.684,8.684,0,0,1-2.494-6.235,9.584,9.584,0,0,1,.7-3.538,9.318,9.318,0,0,1,2-3.113l23.279-23.279L86.87-850.317a6.6,6.6,0,0,0,1.8,1.3,4.433,4.433,0,0,0,1.94.468,3.575,3.575,0,0,0,2.546-1.2,3.59,3.59,0,0,0,1.2-2.562,3.347,3.347,0,0,0-.364-1.387,5.844,5.844,0,0,0-1.2-1.611L77.932-870.167a8.818,8.818,0,0,0-3.118-2.026,9.833,9.833,0,0,0-3.533-.676,9.474,9.474,0,0,0-3.464.676,8.93,8.93,0,0,0-3.077,2.012l-15.8,15.811a8.29,8.29,0,0,0-2.027,3.066,12.818,12.818,0,0,0-.676,3.637,8.317,8.317,0,0,0,.779,3.949,16.713,16.713,0,0,0,2.13,3.481l-4.469,4.469a18.225,18.225,0,0,1-3.378-5.508,17.37,17.37,0,0,1-1.3-6.547,15.337,15.337,0,0,1,1.2-5.976,15.536,15.536,0,0,1,3.378-5.04l15.693-15.693a14.52,14.52,0,0,1,5.175-3.378A16.634,16.634,0,0,1,71.364-879a16.389,16.389,0,0,1,5.893,1.091,14.584,14.584,0,0,1,5.144,3.378l1.871,1.871,1.871-1.871a14.52,14.52,0,0,1,5.175-3.378A16.634,16.634,0,0,1,97.241-879a16.389,16.389,0,0,1,5.893,1.091,14.584,14.584,0,0,1,5.144,3.378l18.6,18.6a15.09,15.09,0,0,1,3.43,5.2,16.092,16.092,0,0,1,1.143,5.924,15.667,15.667,0,0,1-1.143,5.868,15.227,15.227,0,0,1-3.43,5.144L91.858-798.77a9.6,9.6,0,0,1-3.069,2.078A9.08,9.08,0,0,1,85.214-795.964ZM75.023-852.707Z" transform="translate(-40 879)" fill="#ab0a1a"/>
</svg>
