<svg version="1.2" xmlns="http://www.w3.org/2000/svg" viewBox="0 0 459 103" width="459" height="103">
	<title>Cash App Logo Vector-svg</title>
	<style>
		.s0 { fill: #000000 } 
		.s1 { fill: #00d54b } 
		.s2 { fill: #ffffff } 
	</style>
	<g id="Layer">
		<g id="Layer">
			<path id="Layer" class="s0" d="m185.1 40.7c-0.4 0.2-0.8 0.3-1.3 0.2-0.5-0.1-0.9-0.3-1.1-0.7-1.4-1.9-3.2-3.5-5.3-4.6-2.2-1.1-4.5-1.6-6.9-1.5-9.3 0-15 7.3-15 17.8 0 10.5 5.8 18 15.1 18 2.4 0 4.8-0.5 6.9-1.6 2.2-1.2 4-2.8 5.3-4.8 0.3-0.4 0.7-0.7 1.1-0.8 0.5-0.1 0.9 0 1.3 0.2l4.4 2.6q0.4 0.2 0.7 0.5 0.2 0.3 0.3 0.7 0.1 0.4 0 0.8 0 0.4-0.3 0.7c-2.1 3.3-5.1 5.9-8.5 7.7-3.5 1.8-7.3 2.6-11.2 2.5-14.8 0-24.9-10.7-24.9-26.4 0-15.7 10.1-26.4 24.7-26.4 3.8-0.1 7.6 0.8 11 2.5 3.4 1.6 6.4 4.2 8.6 7.3q0.2 0.3 0.3 0.7 0.1 0.3 0 0.7 0 0.4-0.2 0.7-0.3 0.4-0.6 0.6z"/>
			<path id="Layer" fill-rule="evenodd" class="s0" d="m217.6 75.6v-2.1c-2.3 3-5.6 4.8-10.8 4.8-7.7 0-13-4.2-13-11.6 0-9.2 8.2-10.8 13.2-11.5 5.5-0.8 10.1-1.1 10.1-4.7 0-3.1-3.6-4-6.7-4-3.6 0.1-7 0.9-10.2 2.6q-0.3 0.2-0.7 0.2-0.3 0-0.7-0.1-0.3-0.1-0.6-0.3-0.3-0.3-0.5-0.6l-1.6-3.3c-0.2-0.5-0.2-1-0.1-1.4 0.2-0.5 0.5-0.9 0.9-1.1 4.4-2.3 9.3-3.6 14.2-3.6 8.9 0 15.1 3.7 15.1 12.4v24.3c0 0.5-0.2 1-0.5 1.3-0.4 0.4-0.8 0.5-1.3 0.5h-4.9q-0.4 0.1-0.7-0.1-0.4-0.1-0.6-0.4-0.3-0.2-0.5-0.6-0.1-0.3-0.1-0.7zm-0.5-16.8c-1.7 1.3-4.9 1.7-8.2 2.3-3.4 0.6-6.2 1.5-6.2 5.2 0 3.3 2.5 4.9 6 4.9 4.3 0 8.4-2.4 8.4-8.1z"/>
			<path id="Layer" class="s0" d="m234.2 67.8c0.3-0.3 0.8-0.5 1.2-0.6 0.5 0 1 0.1 1.4 0.4 3.1 2.3 6.9 3.6 10.8 3.5 4 0 6.9-1.3 6.9-4.4 0-2.9-2.7-3.5-9.3-4.6-6.9-1.2-13.6-3.5-13.6-11.4 0-8.3 7.2-11.8 15.3-11.8 5.1-0.1 10.1 1.6 14.1 4.6q0.3 0.3 0.5 0.6 0.2 0.3 0.2 0.7 0.1 0.4 0 0.8-0.2 0.3-0.4 0.6l-2.3 2.8c-0.3 0.3-0.8 0.6-1.3 0.6-0.4 0.1-0.9-0.1-1.3-0.4-2.8-2-6.3-3.2-9.9-3.1-3.4 0-6.4 1-6.4 3.7 0 3 4.2 3.6 8.4 4.3 9 1.5 14.7 4.1 14.7 11.6 0 7.8-6.2 12.7-16.2 12.7-5.4 0.1-10.8-1.6-15.1-4.9q-0.3-0.3-0.5-0.6-0.1-0.3-0.2-0.7 0-0.4 0.1-0.8 0.1-0.3 0.4-0.6z"/>
			<path id="Layer" class="s0" d="m268.8 75.6v-47.2c0-0.5 0.2-1 0.5-1.3 0.4-0.4 0.8-0.6 1.3-0.6h5.4c0.5 0 0.9 0.2 1.3 0.6 0.3 0.3 0.5 0.8 0.5 1.3v16.1c1.4-1.8 3.1-3.2 5.1-4.2 2-1 4.2-1.4 6.4-1.4 7.9 0 12.6 5.7 12.6 13.7v23c0 0.5-0.2 1-0.6 1.3-0.3 0.4-0.8 0.6-1.3 0.6h-5.3c-0.5 0-1-0.2-1.3-0.6-0.4-0.3-0.6-0.8-0.6-1.3v-20.9c0-4-1.3-7.6-6.4-7.6-4.9 0-8.6 3.4-8.6 9.1v19.4c0 0.5-0.2 1-0.5 1.3-0.4 0.4-0.8 0.6-1.3 0.6h-5.4q-0.4 0-0.7-0.2-0.3-0.1-0.6-0.4-0.3-0.2-0.4-0.6-0.1-0.3-0.1-0.7z"/>
			<path id="Layer" fill-rule="evenodd" class="s0" d="m360.7 76.2l-3.8-11.4h-19.5l-3.8 11.4q-0.2 0.6-0.7 0.9-0.5 0.4-1.1 0.4h-6.3q-0.4 0-0.8-0.3-0.4-0.2-0.7-0.5-0.3-0.4-0.3-0.9-0.1-0.4 0.1-0.8l17.5-47.3q0.2-0.5 0.7-0.8 0.5-0.3 1.1-0.3h8.5q0.6 0 1.1 0.3 0.5 0.3 0.7 0.9l17.5 47.2q0.1 0.4 0.1 0.9-0.1 0.4-0.4 0.8-0.2 0.4-0.6 0.6-0.4 0.2-0.9 0.2h-6.6q-0.6 0-1.1-0.4-0.5-0.3-0.7-0.9zm-13.4-41.4l-7.5 22.1h14.7z"/>
			<path id="Layer" fill-rule="evenodd" class="s0" d="m384.3 41.6v3c1.3-1.9 3.1-3.3 5.1-4.3 2-1 4.3-1.5 6.5-1.4 10.3 0 16.9 8.5 16.9 19.6 0 11.2-6.6 19.8-16.9 19.8-2.2 0.1-4.5-0.4-6.5-1.4-2-1-3.8-2.5-5.1-4.3v15.4c0 0.5-0.2 0.9-0.5 1.3-0.4 0.3-0.9 0.5-1.4 0.5h-5.3c-0.5 0-1-0.2-1.3-0.5-0.4-0.4-0.6-0.8-0.6-1.3v-46.5c0-0.4 0.2-0.9 0.6-1.3 0.3-0.3 0.8-0.5 1.3-0.5h5.3q0.4 0 0.8 0.1 0.3 0.2 0.6 0.5 0.3 0.2 0.4 0.6 0.1 0.4 0.1 0.7zm9.7 28.8c6.3 0 9.3-5.4 9.3-11.9 0-6.4-3.1-11.7-9.3-11.7-6.2 0-9.7 5.2-9.7 11.7 0 6.5 3.3 11.9 9.7 11.9z"/>
			<path id="Layer" fill-rule="evenodd" class="s0" d="m427.5 41.6v3c1.3-1.9 3-3.3 5.1-4.3 2-1 4.2-1.5 6.5-1.4 10.3 0 16.9 8.5 16.9 19.6 0 11.2-6.6 19.8-16.9 19.8-2.3 0.1-4.5-0.4-6.5-1.4-2.1-1-3.8-2.5-5.1-4.3v15.4c0 0.5-0.2 0.9-0.6 1.3-0.3 0.3-0.8 0.5-1.3 0.5h-5.3c-0.5 0-1-0.2-1.3-0.5-0.4-0.4-0.6-0.8-0.6-1.3v-46.5c0-0.4 0.2-0.9 0.6-1.3 0.3-0.3 0.8-0.5 1.3-0.5h5.3q0.4 0 0.8 0.1 0.3 0.2 0.6 0.5 0.2 0.2 0.4 0.6 0.1 0.4 0.1 0.7zm9.7 28.8c6.3 0 9.3-5.4 9.3-11.9 0-6.4-3.1-11.7-9.3-11.7-6.2 0-9.7 5.2-9.7 11.7 0 6.5 3.3 11.9 9.7 11.9z"/>
		</g>
		<g id="Layer">
			<path id="Layer" class="s1" d="m28.9 2.3c-12.6 0-22.9 10.2-22.9 22.9v53.6c0 12.7 10.3 22.9 22.9 22.9h53.1c12.7 0 22.9-10.2 22.9-22.9v-53.6c0-12.7-10.2-22.9-22.9-22.9z"/>
			<path id="Layer" class="s2" d="m71.5 39.3c-3.7-3.2-8.5-5-13.5-5-4.1 0-8.1 1.4-8.1 5.1 0 3.4 3.6 4.8 8.1 6.4q0.6 0.2 1.3 0.5c8.8 3 16.1 6.6 16.1 15.3 0 9.4-7.3 15.8-19.2 16.6l-1.1 5c-0.2 0.9-1.1 1.6-2 1.6h-7.5c-0.7 0-1.2-0.3-1.6-0.8-0.4-0.4-0.5-1.1-0.4-1.7l1.1-5.3c-4.5-1.1-8.6-3.4-12-6.6-0.4-0.4-0.6-0.9-0.6-1.5 0-0.5 0.2-1 0.6-1.4l4.2-4.1c0.8-0.8 2-0.8 2.8 0 3.8 3.7 8.9 5.7 14.2 5.6 5.4 0 9.1-2.3 9.1-6 0-3.3-3-4.4-8.7-6.5q-1-0.3-2-0.7c-7.3-2.6-14.3-6.4-14.3-15.1 0-10.2 8.4-15.1 18.4-15.6l1-5.1c0.2-1 1.1-1.6 2-1.6h7.5c0.6 0 1.2 0.3 1.6 0.7 0.4 0.5 0.5 1.1 0.4 1.7l-1.2 5.8c3.9 1.2 7.4 3.2 10.4 5.8 0.5 0.3 0.7 0.9 0.7 1.4 0.1 0.6-0.2 1.1-0.6 1.5l-3.8 3.9c-0.8 0.8-2.1 0.8-2.9 0.1z"/>
		</g>
	</g>
</svg>