<svg version="1.2" xmlns="http://www.w3.org/2000/svg" viewBox="0 0 275 84" width="275" height="84"><style>.a{fill:#f47920}.b{fill:#472f92}</style><path class="a" d="m247.2 80.4l-11.1-12.5-11 12.5h-23.1l22.6-25.5-22.6-25.6h23.8l11.3 12.4 10.8-12.4h23l-22.5 25.5 22.8 25.6z"/><path class="a" d="m157.4 80.4v-80.4h44.6v17.9h-25.7v11.4h25.7v17.3h-25.7v15.8h25.7v18z"/><path fill-rule="evenodd" class="b" d="m157.5 0v80.4h-18.8v-5.2h-0.2c-3.5 5.1-9.1 8.1-15.2 8.1-14.2 0-24.5-11.5-26.2-24.8h-37.1c0 5.9 4.9 10.9 10.6 10.9 5 0 6.8-1 9.3-4.6h18.3c-4.8 11.8-13.8 18.3-27.6 18.3-16.3 0-29-11.8-29-28.6q0-4.2 0.9-7.9h-21.2v33.8h-21.3v-80.4h47.4v17.9h-26.1v11.4h23.9v10.6c4.8-8.5 13.9-13.7 25.4-13.7 14.3 0 23.9 7.5 27.6 19.8 3.3-11.2 12.6-19.6 24.9-19.6 6 0 11.2 1.7 15.4 6.5h0.2v-32.9zm-76.7 46.8c-1-5.2-4.7-8.4-10.1-8.4-5 0-8.9 3.3-10.1 8.4zm57.3 8.1c0-7.2-3.1-14.1-10.8-14.1-7.5 0-11.2 6.9-11.2 14.1 0 6.8 4.3 13.2 11.2 13.2 7.5 0 10.8-6.3 10.8-13.2z"/></svg>