<svg version="1.2" xmlns="http://www.w3.org/2000/svg" viewBox="0 0 710 157" width="710" height="157">
	<title>VISA-ai</title>
	<style>
		.s0 { fill: #00579f } 
		.s1 { fill: #f9a519 } 
		.s2 { fill: #f7981c } 
		.s3 { fill: #cc2027 } 
		.s4 { fill: #fefefe } 
		.s5 { fill: #211f5e } 
	</style>
	<g id="Layer 1">
		<g id="&lt;Group&gt;">
			<path id="&lt;Path&gt;" class="s0" d="m135.9 131.8l18.1-106h28.9l-18.1 106z"/>
			<path id="&lt;Path&gt;" class="s0" d="m269.6 28.4c-5.7-2.2-14.7-4.5-25.9-4.5-28.5 0-48.7 14.4-48.8 35-0.2 15.2 14.3 23.7 25.3 28.8 11.2 5.2 15 8.5 15 13.2-0.1 7.1-9 10.3-17.3 10.3-11.6 0-17.7-1.6-27.2-5.5l-3.7-1.7-4.1 23.7c6.7 3 19.2 5.5 32.2 5.7 30.4 0 50.1-14.2 50.3-36.3 0.1-12-7.6-21.2-24.2-28.8-10.1-4.9-16.3-8.1-16.3-13.1 0-4.4 5.3-9.1 16.6-9.1 9.4-0.2 16.3 1.9 21.6 4l2.6 1.3z"/>
			<path id="&lt;Compound Path&gt;" fill-rule="evenodd" class="s0" d="m367.2 131.8h-26.9c0 0-2.6-12.1-3.5-15.8-4.2 0-33.7-0.1-37-0.1-1.1 2.9-6.1 15.9-6.1 15.9h-30.3l42.9-97.2c3-6.9 8.2-8.7 15.1-8.7h22.4zm-35.1-37.7c-1.2-5.3-6.7-30.6-6.7-30.6l-1.9-9.2c-1.5 4-4 10.5-3.9 10.2 0 0-9.1 23.5-11.5 29.6z"/>
			<path id="&lt;Path&gt;" class="s0" d="m111.6 25.8l-28.3 72.4-3-14.7c-5.2-17-21.7-35.3-40-44.5l25.9 92.7h30.6l45.5-105.9z"/>
			<path id="&lt;Path&gt;" class="s1" d="m57.1 25.8h-46.6l-0.4 2.2c36.3 8.8 60.3 30 70.2 55.5l-10.1-48.8c-1.8-6.7-6.8-8.7-13.1-8.9z"/>
		</g>
		<g id="&lt;Group&gt;">
			<path id="&lt;Path&gt;" class="s2" d="m577 135.4c13.6 12.3 31.6 19.8 51.4 19.8 42.3 0 76.6-34.3 76.6-76.6 0-42.3-34.3-76.6-76.6-76.6-19.8 0-37.8 7.5-51.4 19.8-15.5 14-25.2 34.3-25.2 56.8 0 22.5 9.7 42.7 25.2 56.8z"/>
			<path id="&lt;Compound Path&gt;" fill-rule="evenodd" class="s2" d="m697.3 123.8c-1.4 0-2.5-1.1-2.5-2.5 0-1.4 1.1-2.5 2.5-2.5 1.3 0 2.4 1.1 2.4 2.5 0 1.4-1.1 2.5-2.4 2.5zm1.8-2.5c0-1.1-0.8-1.9-1.8-1.9-1.1 0-1.9 0.8-1.9 1.9 0 1 0.8 1.9 1.9 1.9 1 0 1.8-0.9 1.8-1.9zm-2.2 1.1h-0.5v-2.2h0.9c0.2 0 0.4 0 0.6 0.1 0.2 0.1 0.3 0.3 0.3 0.5 0 0.3-0.2 0.5-0.4 0.6l0.4 1h-0.6l-0.3-0.9h-0.4zm0-1.2h0.3c0.1 0 0.2 0 0.3-0.1 0.1 0 0.1-0.1 0.1-0.2q0-0.2-0.1-0.2c-0.1-0.1-0.2-0.1-0.3-0.1h-0.3z"/>
			<path id="&lt;Path&gt;" class="s3" d="m601.8 70.5q-0.5-4.1-1.3-8.1h-47q0.9-4.2 2.3-8.1h42.4q-1.4-4.2-3.2-8.1h-36q2-4.3 4.5-8.2h27.1q-2.7-4.2-5.9-8.1h-15.4q3.5-4.3 7.7-8.1c-13.6-12.3-31.6-19.8-51.4-19.8-42.3 0-76.6 34.3-76.6 76.6 0 42.3 34.3 76.6 76.6 76.6 19.8 0 37.8-7.5 51.4-19.8q4.2-3.8 7.7-8.2h-15.4q-3.2-3.8-5.8-8.1h27.1q2.4-3.9 4.4-8.1h-36q-1.8-3.9-3.2-8.1h42.4q1.4-3.9 2.3-8.1 0.8-4 1.3-8.1 0.4-4 0.4-8.1 0-4.1-0.4-8.1z"/>
			<path id="&lt;Compound Path&gt;" fill-rule="evenodd" class="s4" d="m697.3 98.8c-1.4 0-2.5-1.1-2.5-2.4 0-1.4 1.1-2.5 2.5-2.5 1.3 0 2.4 1.1 2.4 2.5 0 1.3-1.1 2.4-2.4 2.4zm1.8-2.4c0-1.1-0.8-1.9-1.8-1.9-1.1 0-1.9 0.8-1.9 1.9 0 1 0.8 1.8 1.9 1.8 1 0 1.8-0.8 1.8-1.8zm-2.2 1h-0.5v-2.1h0.9c0.2 0 0.4 0 0.6 0.1 0.2 0.1 0.3 0.3 0.3 0.5 0 0.3-0.2 0.5-0.4 0.6l0.4 0.9h-0.6l-0.3-0.8h-0.4zm0-1.3h0.3c0.1 0 0.2 0.1 0.3 0q0.1-0.1 0.1-0.2 0-0.2-0.1-0.3c-0.1 0-0.2 0-0.3 0h-0.3z"/>
			<path id="&lt;Path&gt;" class="s5" d="m551 100.7c-2.6 0.7-4.4 1-6.3 1-3.9 0-6.3-2.4-6.3-6.9q0-1.3 0.3-2.8l0.5-3.1 0.4-2.5 3.6-21.6h7.9l-0.9 4.7h5l-1.2 8h-5l-2.1 12.9q-0.2 0.8-0.2 1.3c0 1.6 0.9 2.3 2.8 2.3 1 0 1.7-0.1 2.6-0.3z"/>
			<path id="&lt;Compound Path&gt;" fill-rule="evenodd" class="s5" d="m576.6 100.4c-2.8 0.9-5.6 1.3-8.5 1.3-8.9 0-14.1-4.9-14.1-14.2 0-10.8 6.2-18.8 14.5-18.8 6.9 0 11.2 4.5 11.2 11.5 0 2.3-0.3 4.6-1 7.8h-16.5c-0.1 0.5-0.1 0.7-0.1 1 0 3.7 2.5 5.5 7.3 5.5 3 0 5.6-0.6 8.6-2zm-4.9-18.8q0-1 0-1.6c0-2.5-1.4-4.1-3.9-4.1-2.6 0-4.5 2.1-5.3 5.7z"/>
			<path id="&lt;Path&gt;" class="s5" d="m487.5 101.1h-8.3l4.7-29.9-10.6 29.9h-5.6l-0.7-29.7-5 29.7h-8.1l6.5-38.9h11.9l0.4 24.1 8-24.1h13.2z"/>
			<path id="&lt;Compound Path&gt;" fill-rule="evenodd" class="s5" d="m514 101.1h-7.1l0.1-3.3c-1.8 2.5-4.3 3.8-8.7 3.8-4 0-7.4-3.5-7.4-8.6 0-1.5 0.3-2.9 0.6-4.1 1.3-4.9 6.3-8 13.8-8.1 0.9 0 2.4 0 3.7 0.2 0.2-1.1 0.3-1.5 0.3-2.1 0-2.1-1.7-2.7-5.6-2.7-2.4 0-5 0.4-6.9 0.9l-1.1 0.3-0.5 0.2 1.1-7.1c3.9-1.2 6.6-1.7 9.7-1.7 7.1 0 10.9 3.2 10.9 9.3 0 1.5 0.2 2.7-0.4 6.2l-1.7 11.2-0.3 2-0.2 1.6-0.2 1.1zm-6.5-14c-0.9-0.1-1.1-0.2-1.7-0.2-4.7 0-7.1 1.8-7.1 4.8 0 2 1.2 3.3 3 3.3 4 0 5.6-3.3 5.8-7.9z"/>
			<path id="&lt;Path&gt;" class="s5" d="m616.6 69.8c2.3 0 4.5 0.6 7.5 2.1l1.3-8.4c-0.7-0.3-0.9-0.4-2-0.8l-3.4-0.9q-1.6-0.4-3.7-0.4c-4.2 0-6.6 0.1-9.1 1.6-1.3 0.8-3 2-4.9 4.2l-1-0.3-8.5 6 0.4-3.4h-8.8l-5.1 31.6h8.4l3-17c0 0 1.2-2.3 1.7-3.1 1.6-2 2.9-2 4.6-2 0.3 0 0.5 0 0.6 0q-0.3 2.8-0.3 6c0 10.4 5.8 16.8 14.8 16.8 2.3 0 4.3-0.3 7.3-1.1l1.5-8.9c-2.8 1.4-5 2-7.1 2-4.8 0-7.7-3.6-7.7-9.4 0-8.6 4.3-14.6 10.5-14.6z"/>
			<path id="&lt;Compound Path&gt;" fill-rule="evenodd" class="s5" d="m695.3 62.3l-6.3 38.8h-7.9l0.5-3.1c-2.3 2.4-4.7 3.5-7.7 3.5-6.1 0-10.2-5.2-10.2-13.1 0-3.6 0.6-6.7 1.5-9.4-1.1 0.1-2.4 0.4-3.7 2-0.5 0.7-2.6 3.1-2.6 3.1l-2.8 17h-8.3l5.1-31.6h8.8l-0.4 3.4 5.2 3.1v0.1c2.6-4.7 6.6-7.2 10.9-7.2 3.3 0 5.6 1.5 7.6 4.4l1.9-11zm-12 20.7c0-4-1.6-6.2-4.4-6.2-3.8 0-6.5 4.4-6.5 10.6q0 6.3 4.3 6.3c3.9 0 6.6-4.4 6.6-10.7z"/>
			<path id="&lt;Compound Path&gt;" fill-rule="evenodd" class="s5" d="m645 101.1h-7.2l0.2-3.3c-1.8 2.5-4.3 3.8-8.7 3.8-4 0-7.7-3.4-7.7-8.6 0.1-7.5 5.7-12.2 14.7-12.2 0.9 0 2.4 0 3.6 0.2 0.3-1.1 0.4-1.5 0.4-2.1 0-2.1-1.7-2.7-5.6-2.7-2.4 0-5.1 0.4-6.9 0.9l-1.2 0.3-0.4 0.2 1.1-7.1c3.9-1.2 6.6-1.7 9.7-1.7 7.1 0 10.9 3.2 10.9 9.3 0 1.5 0.1 2.7-0.4 6.2l-1.7 11.2-0.3 2-0.2 1.6-0.2 1.1zm-6.6-14c-0.8-0.1-1-0.2-1.6-0.2-4.7 0-7.1 1.8-7.1 4.8 0 2 1.2 3.3 3 3.3 4 0 5.6-3.3 5.7-7.9z"/>
			<path id="&lt;Path&gt;" class="s5" d="m531.4 76.3c1.6 0 3.8 0.1 6.2 0.4l1.2-7.2c-2.4-0.4-5.5-0.7-7.4-0.7-9.3 0-12.4 5-12.4 10.8 0 3.8 1.9 6.6 6.2 8.6 3.4 1.6 4 1.9 4 3.3 0 2-1.7 3.1-5 3.1-2.5 0-4.8-0.4-7.5-1.2l-0.9 7.2 0.2 0.1 1.5 0.3q0.7 0.2 2.2 0.3c1.9 0.2 3.6 0.3 4.7 0.3 9.2 0 13-3.6 13-10.5 0-4.4-2-6.9-6.2-8.8-3.5-1.6-3.9-1.9-3.9-3.3 0-1.5 1.5-2.7 4.1-2.7z"/>
			<g id="&lt;Group&gt;">
				<path id="&lt;Path&gt;" class="s4" d="m627.7 61l-1.4 8.5c-3-1.5-5.1-2.1-7.4-2.1-6.2 0-10.6 6-10.6 14.5 0 5.9 2.9 9.5 7.8 9.5 2 0 4.3-0.7 7-2l-1.4 8.8c-3.1 0.9-5.1 1.2-7.4 1.2-8.9 0-14.5-6.5-14.5-16.8 0-13.9 7.7-23.6 18.7-23.6q2.2 0 3.7 0.4l3.5 0.9c1 0.3 1.2 0.4 2 0.7z"/>
				<path id="&lt;Path&gt;" class="s4" d="m601 66.8q-0.4-0.1-0.9-0.1c-2.7 0-4.2 1.4-6.8 5.2l0.7-4.8h-7.5l-5 31.6h8.3c2.9-19.4 3.7-22.7 7.7-22.7 0.3 0 0.3 0 0.6 0 0.8-3.8 1.8-6.6 3.2-9.1z"/>
				<path id="&lt;Path&gt;" class="s4" d="m553.1 98.3c-2.3 0.7-4.1 1-6 1-4.2 0-6.6-2.5-6.6-6.9q0-1.4 0.3-2.9l0.5-3.1 0.4-2.5 3.6-21.5h8.2l-0.9 4.7h4.2l-1.1 7.6h-4.3l-2.2 13.2q-0.1 0.9-0.1 1.3c0 1.7 0.9 2.4 2.8 2.4q1.5 0 2.3-0.3z"/>
				<path id="&lt;Path&gt;" class="s4" d="m521.1 77c0 4 2 6.8 6.4 8.9 3.3 1.5 3.8 2 3.8 3.4 0 2-1.4 2.9-4.7 2.9-2.5 0-4.8-0.4-7.5-1.3l-1.1 7.3 0.4 0.1 1.5 0.3q0.7 0.2 2.2 0.3 2.9 0.3 4.5 0.3c8.8 0 12.8-3.4 12.8-10.6 0-4.3-1.6-6.9-5.8-8.8-3.5-1.6-3.9-1.9-3.9-3.4 0-1.7 1.4-2.6 4.1-2.6 1.6 0 3.8 0.2 5.9 0.5l1.2-7.3c-2.1-0.4-5.4-0.6-7.3-0.6-9.3 0-12.5 4.8-12.5 10.6z"/>
				<path id="&lt;Compound Path&gt;" fill-rule="evenodd" class="s4" d="m691.1 98.7h-7.8l0.4-3.1c-2.3 2.4-4.7 3.5-7.7 3.5-6 0-10-5.2-10-13.1 0-10.6 6.2-19.4 13.5-19.4 3.2 0 5.7 1.3 7.9 4.3l1.9-11.1h8.2zm-12.3-7.4c3.9 0 6.6-4.4 6.6-10.7 0-4-1.5-6.2-4.4-6.2-3.8 0-6.5 4.4-6.5 10.6 0 4.2 1.5 6.3 4.3 6.3z"/>
				<path id="&lt;Compound Path&gt;" fill-rule="evenodd" class="s4" d="m578.5 98c-2.9 0.8-5.6 1.3-8.5 1.3-9.3-0.1-14.2-4.9-14.2-14.2 0-10.8 6.2-18.8 14.5-18.8 6.9 0 11.3 4.4 11.3 11.5 0 2.3-0.3 4.6-1.1 7.8h-16.5c0 0.4-0.1 0.7-0.1 0.9 0 3.7 2.5 5.6 7.3 5.6 3 0 5.7-0.6 8.7-2zm-4.7-18.8q0.1-1 0.1-1.6c0-2.6-1.5-4.1-4-4.1-2.6 0-4.5 2-5.3 5.7z"/>
				<path id="&lt;Path&gt;" class="s4" d="m489.6 98.7h-8.3l4.8-29.9-10.7 29.9h-5.6l-0.7-29.7-5 29.7h-7.8l6.5-38.9h11.9l0.4 24.1 8-24.1h13z"/>
				<path id="&lt;Compound Path&gt;" fill-rule="evenodd" class="s4" d="m516.1 98.7h-6.8l0.1-3.3c-2.1 2.6-4.9 3.8-8.7 3.8-4.5 0-7.6-3.5-7.6-8.6 0-7.7 5.4-12.2 14.6-12.2 0.9 0 2.2 0.1 3.4 0.2 0.3-1 0.3-1.4 0.3-2 0-2.1-1.4-2.9-5.3-2.9-2.4 0-5.1 0.4-6.9 0.9l-1.2 0.3-0.7 0.2 1.1-7.1c4.2-1.2 6.9-1.6 10-1.6 7.1 0 10.9 3.2 10.9 9.2 0 1.6-0.1 2.8-0.7 6.3l-1.7 11.2-0.3 2-0.2 1.6-0.2 1.1zm-6-14.1c-0.9-0.1-1.3-0.1-1.9-0.1-4.7 0-7.1 1.6-7.1 4.8 0 2 1.2 3.2 3 3.2 3.4 0 5.8-3.2 6-7.9z"/>
				<path id="&lt;Compound Path&gt;" fill-rule="evenodd" class="s4" d="m647.1 98.7h-6.9l0.2-3.3c-2.1 2.6-4.9 3.8-8.7 3.8-4.5 0-7.6-3.5-7.6-8.6 0-7.7 5.4-12.2 14.6-12.2 0.9 0 2.1 0.1 3.4 0.2 0.2-1 0.3-1.4 0.3-2 0-2.1-1.5-2.9-5.3-2.9-2.4 0-5.1 0.4-6.9 0.9l-1.2 0.3-0.7 0.2 1.1-7.1c4.2-1.2 6.9-1.6 10-1.6 7.1 0 10.9 3.2 10.9 9.2 0 1.6-0.1 2.8-0.7 6.3l-1.7 11.2-0.3 2-0.2 1.6-0.2 1.1zm-6-14.1c-0.9-0.1-1.3-0.1-1.9-0.1-4.7 0-7.1 1.6-7.1 4.8 0 2 1.2 3.2 3 3.2 3.4 0 5.8-3.2 6-7.9z"/>
				<path id="&lt;Path&gt;" class="s4" d="m669.4 66.8q-0.4-0.1-0.8-0.1c-2.7 0-4.3 1.4-6.8 5.2l0.7-4.8h-7.5l-5.1 31.6h8.3c3-19.4 3.8-22.7 7.8-22.7 0.2 0 0.2 0 0.5 0 0.8-3.8 1.8-6.6 3.2-9.1z"/>
			</g>
		</g>
	</g>
</svg>