<svg version="1.2" xmlns="http://www.w3.org/2000/svg" viewBox="0 0 300 71" width="300" height="71">
	<title>WesterUnion-svg</title>
	<style>
		.s0 { fill: #ffdd00 } 
		.s1 { fill: #ffffff } 
	</style>
	<g id="Layer">
		<g id="Layer">
			<path id="Layer" class="s0" d="m38 62.5c6.3 10.8 16.8 10.8 23.1 0l3.3-6.3-31.8-54.5h-29.8z"/>
			<path id="Layer" class="s0" d="m104.6 39.1c-2.5 4.2-7.9 4.2-10 0l-21.8-37.4h-30.2l35.2 60.8c6.3 10.8 16.8 10.8 23 0l23.5-40.8-11.7-20h-30.2z"/>
		</g>
		<g id="Layer">
			<path id="Layer" class="s1" d="m145.2 33.7h6.3c3.8-14.1 5.5-19.9 5.9-23.7 0.4 3.8 2.1 10 5.9 23.7h6.2l8.8-32h-5.8c-3.8 14.5-5.5 20.4-5.9 24.1-0.8-4.1-2.5-10.8-5.9-24.1h-5.8c-3.8 14.5-5.5 20.8-5.9 24.5-0.8-3.7-2.5-10.4-6.3-24.5h-5.8z"/>
			<path id="Layer" fill-rule="evenodd" class="s1" d="m176.2 22.1c0-3.4 1.3-6.7 3.4-8.8q3.8-3.7 8.8-3.7c3.3 0 6.3 1.2 8.4 3.3 2 2.5 3.3 6.3 3.3 10.8v0.5h-18.4c0.4 3.3 2.9 5.4 6.7 5.4 3.7 0 5.8-2.5 6.3-3.8l4.1 2.1c-1.6 3.8-6.2 6.3-10.8 6.3-7.2 0-12.2-5-11.8-12.1zm5.1-2.5h12.5c-0.4-2.9-2.9-5-6.3-5-3.3 0-5.8 2.1-6.2 5z"/>
			<path id="Layer" class="s1" d="m211.4 34.2c5.9 0 9.6-3 9.6-7.1 0-5.4-5-6.7-8.7-7.5-2.6-0.9-5.1-1.3-5.1-2.9 0-1.3 1.3-2.5 3.4-2.5 2.1 0 3.7 1.2 4.2 2.9v0.8l4.6-0.8c0-4.6-3.8-7.5-9.2-7.5-5.5 0-8.8 2.9-8.8 7.1 0 5 4.6 6.2 8.3 7 3 0.9 5.1 1.3 5.1 3.4 0 1.6-1.7 2.5-3.8 2.5-2.9 0-5-1.3-5-3.8v-0.4l-4.6 1.3c0 5 5.4 7.5 10 7.5z"/>
			<path id="Layer" class="s1" d="m225.2 29.6c0 2.5 1.7 5 4.6 5 3.4 0 4.6-0.4 4.6-0.4v-4.6q0 0-2.5 0-1.2 0-1.2-1.3v-13.7h3.7v-4.6h-3.7v-6.7l-5.5 1.3v5.4h-2.9v4.6h2.9z"/>
			<path id="Layer" class="s1" d="m266.7 13.3v-2.9h-4.6v23.8h5.4v-14.6c0-1.3 0.5-2.5 1.3-3.4 1.2-0.8 2.9-1.2 5.4-0.8h0.5v-5h-0.5c-2.9-0.8-5.8 0.4-7.5 2.9z"/>
			<path id="Layer" class="s1" d="m290.1 10c-3.3 0-6.7 1.3-7.9 3.8v-3.4h-5v23.8h5.4v-12.5c0-4.2 2.1-6.7 5.9-6.7 2.5 0 5.4 1.2 5.4 6.2v13h5.5v-13.8c0-7.9-4.6-10.4-9.3-10.4z"/>
			<path id="Layer" class="s1" d="m159.5 57c0 5.5-2.5 8.4-7.1 8.4-4.6 0-7.2-2.9-7.2-8.4v-18.7h-5.8v18.7c0 8.8 5 13.8 13 13.8 7.9 0 12.9-5 12.9-13.8v-18.7h-5.8z"/>
			<path id="Layer" class="s1" d="m181.3 46.2c-3.4 0-6.7 1.3-8 3.8v-3.4h-5v23.8h5.4v-12.5c0-4.2 2.1-6.7 5.9-6.7 2.5 0 5.4 1.3 5.4 6.3v12.9h5.5v-13.8c0-7.9-4.6-10.4-9.2-10.4z"/>
			<path id="Layer" class="s1" d="m194.2 46.6h5.5v23.8h-5.5z"/>
			<path id="Layer" class="s1" d="m196.8 37.9c-1.7 0-3.4 1.2-3.4 3.3 0 1.7 1.3 3.4 3.4 3.4 1.6 0 3.3-1.3 3.3-3.4 0-2.1-1.3-3.3-3.3-3.3z"/>
			<path id="Layer" fill-rule="evenodd" class="s1" d="m224 49.6c2.5 2 3.7 5.4 3.7 8.7 0 7.1-5.4 12.1-12.5 12.1-7.1 0-12.6-5-12.6-12.1 0-3.3 1.3-6.7 3.4-8.7 2.1-2.1 5.4-3.4 8.8-3.4 3.7 0 6.7 1.3 9.2 3.4zm-2.1 8.7c0-3.9-3.2-7.1-7.1-7.1-4 0-7.2 3.2-7.2 7.1 0 3.9 3.2 7.1 7.2 7.1 3.9 0 7.1-3.2 7.1-7.1z"/>
			<path id="Layer" class="s1" d="m242.8 46.2c-3.3 0-6.7 1.3-7.9 3.8v-3.4h-5.1v23.8h5.5v-12.5c0-4.2 2.1-6.7 5.8-6.7 2.6 0 5.5 1.3 5.5 6.3v12.9h5.4v-13.8c0.5-7.9-4.6-10.4-9.2-10.4z"/>
			<path id="Layer" fill-rule="evenodd" class="s1" d="m256.6 13.3c2.1 2.5 3.4 6.3 3.4 10.9v0.4h-18.4c0.4 3.3 2.9 5.4 6.7 5.4 3.7 0 5.8-2.5 6.3-3.8l4.1 2.1c-1.6 3.8-6.2 6.3-10.8 6.3-7.2 0-12.2-5-12.2-12.1 0-3.3 1.3-6.7 3.4-8.7q3.7-3.8 8.8-3.8c3.3 0 6.2 0.8 8.7 3.3zm-2.9 6.3c-0.4-2.9-2.9-5-6.3-5-3.3 0-5.8 2.1-6.3 5z"/>
		</g>
	</g>
</svg>