<svg version="1.2" xmlns="http://www.w3.org/2000/svg" viewBox="0 0 723 314" width="723" height="314">
	<title>Zelle_logo-svg</title>
	<style>
		.s0 { fill: #6c1cd3 } 
	</style>
	<g id="Layer">
		<path id="path6" class="s0" d="m73 45l-65.7-0.6v43.6h108.9l-113.2 145.1v36.9h70v42.5h42v-42.5h71.4c0.6-1.7 0.8-6.3-3-10.5-6.3-7-11.3-14.3-15.9-23.5-2.1-4.1-3.7-9-4.3-9.4-14.1-0.7-94.9-0.5-94.9-1l113.3-146v-34.6h-66.6v-43h-42z"/>
		<path id="path8" class="s0" d="m376.3 24.7c-1 0.4-1.3 22.5-1.3 106.2 0 113.1-0.1 111.2 4.9 120.9 4.5 8.7 15.5 16.5 27.8 19.7 6.8 1.8 26.8 2 34.5 0.4 9.9-2.1 11.8-5.1 7.9-12.8-2.5-4.8-5.8-15.3-6.6-21.1-1.1-6.9-2.5-8-10.9-7.8-4 0.1-7.8-0.2-8.5-0.6-4.1-2.6-4.1-3.3-4.1-104.6 0-65.1-0.3-97.8-1-99.1-1-1.8-2.3-1.9-21.3-1.8-11.1 0-20.8 0.3-21.4 0.6z"/>
		<path id="path10" class="s0" d="m468 25c-1.3 0.8-1.5 13.6-1.5 105.2 0 98.7 0.1 104.7 1.9 111.6 3.4 13.6 11.1 21.9 25.7 28 5.6 2.3 8.1 2.7 19.4 3 15.1 0.4 22.8-0.7 30.5-4.6 7.6-3.7 7.8-6.3 1.3-15.8-2.6-3.8-6.6-10.3-8.8-14.4l-4-7.5-7.3-0.1c-9.1-0.2-10-0.6-11.7-4.9-1.3-2.9-1.5-17.8-1.5-100.5 0-65.1-0.3-97.8-1-99.1-1-1.8-2.3-1.9-21.3-1.9-11.1 0-20.9 0.5-21.7 1z"/>
		<path id="path16" fill-rule="evenodd" class="s0" d="m266 87.1c11.2-0.1 16.4 0.4 22.7 1.9 35.5 8.5 58.1 33.9 63.8 71.7 2.4 15.8 1.6 30.3-1.7 32.4-0.7 0.5-29.4 0.9-63.7 0.9h-62.3l0.6 3.7c1 5.5 5.8 15.3 9.6 19.6 7.5 8.6 19.3 12.8 35.5 12.9 17.7 0.1 31.2-4.5 41.9-14.2 3.1-3 6.3-5 7.7-5 1.5 0 4.4 2.4 9.2 7.5 3.8 4.2 9.6 9.6 12.8 12.1 7.8 6 7.9 8 0.2 15.2-12.1 11.5-27.1 19.6-44.7 24.5-7.1 1.9-10.6 2.2-27.6 2.2-17.2 0-20.5-0.3-28-2.3-22-6-39-17.9-50.6-35.4-10.3-15.6-14.8-32-14.7-54.3 0.1-15.9 2-26.6 7.3-40.4 9.6-25 32.3-44.7 58-50.6 4.1-0.9 8-1.8 8.5-2 0.6-0.2 7.5-0.4 15.5-0.4zm-10.5 39.3c-14.4 3.6-26 14.9-29 28.4l-0.7 3.2h81.5l-0.7-3.2c-1-5.1-5-13-8.9-17.4-4.2-4.8-13.2-9.8-20.5-11.3-6.7-1.4-15.3-1.3-21.7 0.3z"/>
		<path id="path18" fill-rule="evenodd" class="s0" d="m654.7 88.5c26 5.5 44.7 19.4 56.4 41.8 2.2 4.2 4.9 10.2 5.9 13.2 5.2 15.2 6.8 48 2.5 51.1h-126.7l0.7 2.6c4.8 22 19.6 32.9 45 33 18.1 0.1 31.1-4.3 42-14.2 7.3-6.6 9-6.5 15.5 1 2.8 3.3 8.7 9 13.1 12.6 9.5 7.9 9.5 8.3 0.7 16.8-11.5 11-26.5 19.2-43.6 23.7-5.6 1.5-12.1 2.2-24.2 2.6-14.3 0.4-17.9 0.2-27-1.7-28.8-5.9-49.9-22.2-61.5-47.4-8.5-18.2-11-43.6-6.5-65.4 7.5-36.9 31.5-61.9 67-69.8 7.9-1.7 32.4-1.7 40.7 0.1zm-60.2 66.7l-0.7 2.8h81.2v-2.4c0-3.8-6.8-16.1-11-20-5-4.5-12-8-18.8-9.5-23.5-5-45.5 7.7-50.7 29.1z"/>
	</g>
</svg>